<svg xmlns="http://www.w3.org/2000/svg" width="135" height="40" fill="none"><g clip-path="url(#a)"><path fill="#000" d="M130 0H5a5 5 0 0 0-5 5v30a5 5 0 0 0 5 5h125a5 5 0 0 0 5-5V5a5 5 0 0 0-5-5z"/><path fill="#999" d="M130 .8a4.2 4.2 0 0 1 4.2 4.2v30a4.198 4.198 0 0 1-4.2 4.2H5A4.2 4.2 0 0 1 .8 35V5A4.2 4.2 0 0 1 5 .8h125zm0-.8H5a5 5 0 0 0-5 5v30a5 5 0 0 0 5 5h125a5.002 5.002 0 0 0 5-5V5a5.002 5.002 0 0 0-5-5z"/><path fill="#fff" stroke="#fff" stroke-miterlimit="10" stroke-width=".2" d="M47.42 10.24a2.72 2.72 0 0 1-.75 2 2.9 2.9 0 0 1-2.2.88 3 3 0 0 1-2.21-.9 3 3 0 0 1-.91-2.22 3 3 0 0 1 .91-2.23 3.16 3.16 0 0 1 3.44-.65c.36.148.682.377.94.67l-.53.53a2 2 0 0 0-1.64-.72 2.32 2.32 0 0 0-2.33 2.4 2.36 2.36 0 0 0 4 1.73 1.93 1.93 0 0 0 .51-1.22h-2.18v-.72h2.91c.023.149.036.3.04.45zM52 7.74h-2.7v1.9h2.46v.72H49.3v1.9H52V13h-3.48V7H52v.74zM55.28 13h-.77V7.74h-1.68V7H57v.74h-1.72V13zm4.66 0V7h.77v6h-.77zm4.19 0h-.77V7.74h-1.68V7h4.12v.74h-1.67V13zm9.48-.78a3.108 3.108 0 0 1-4.4 0 3.002 3.002 0 0 1-.88-2.22 3.002 3.002 0 0 1 .88-2.22 2.93 2.93 0 0 1 2.2-.91 3 3 0 0 1 2.2.91 3.068 3.068 0 0 1 .88 2.22 3 3 0 0 1-.88 2.22zm-3.83-.5a2.291 2.291 0 0 0 3.77-.792c.115-.295.17-.611.16-.928A2.36 2.36 0 0 0 73 8.28a2.29 2.29 0 0 0-3.26 0 2.36 2.36 0 0 0-.63 1.72 2.36 2.36 0 0 0 .67 1.72zm5.8 1.28V7h.93l2.92 4.67V7h.77v6h-.8l-3.05-4.89V13h-.77z"/><path fill="#fff" d="M68.14 21.75A4.26 4.26 0 1 0 72.41 26a4.19 4.19 0 0 0-4.27-4.25zm0 6.83a2.58 2.58 0 1 1 2.4-2.58 2.46 2.46 0 0 1-2.4 2.58zm-9.32-6.83A4.26 4.26 0 1 0 63.09 26a4.19 4.19 0 0 0-4.27-4.25zm0 6.83a2.58 2.58 0 1 1 2.4-2.58 2.46 2.46 0 0 1-2.4 2.58zm-11.08-5.52v1.8h4.32a3.77 3.77 0 0 1-1 2.27 4.42 4.42 0 0 1-3.34 1.32 4.8 4.8 0 0 1 0-9.6A4.64 4.64 0 0 1 51 20.14l1.27-1.27a6.3 6.3 0 0 0-4.53-1.82 6.61 6.61 0 1 0 0 13.21 6.07 6.07 0 0 0 4.61-1.85 6 6 0 0 0 1.56-4.23 6.264 6.264 0 0 0-.09-1.12h-6.08zm45.31 1.4a4 4 0 0 0-3.64-2.71 4 4 0 0 0-4 4.25 4.23 4.23 0 0 0 7.76 2.37l-1.45-1a2.41 2.41 0 0 1-2.09 1.17 2.15 2.15 0 0 1-2.06-1.29l5.69-2.35-.21-.44zm-5.8 1.42a2.328 2.328 0 0 1 2.23-2.48 1.64 1.64 0 0 1 1.57.9l-3.8 1.58zM82.63 30h1.87V17.5h-1.87V30zm-3.06-7.3h-.07a2.938 2.938 0 0 0-2.24-.95 4.26 4.26 0 0 0 0 8.51 2.88 2.88 0 0 0 2.24-1h.07v.61c0 1.63-.87 2.5-2.27 2.5a2.36 2.36 0 0 1-2.15-1.51l-1.62.67a4 4 0 0 0 3.77 2.52c2.19 0 4-1.29 4-4.43V22h-1.73v.7zm-2.15 5.88a2.58 2.58 0 0 1 0-5.15A2.39 2.39 0 0 1 79.7 26a2.38 2.38 0 0 1-2.28 2.58zm24.39-11.08h-4.48V30h1.87v-4.74h2.61a3.889 3.889 0 1 0 0-7.76zm0 6H99.2v-4.26h2.65a2.138 2.138 0 0 1 2.14 2.14 2.137 2.137 0 0 1-2.14 2.14l-.04-.02zm11.54-1.79a3.49 3.49 0 0 0-3.33 1.91l1.65.69a1.784 1.784 0 0 1 1.71-.91 1.804 1.804 0 0 1 1.792.931c.114.21.184.441.208.679v.12a4.18 4.18 0 0 0-1.95-.48c-1.78 0-3.6 1-3.6 2.82a2.898 2.898 0 0 0 .973 2.034 2.892 2.892 0 0 0 2.137.716 2.65 2.65 0 0 0 2.38-1.22h.06v1h1.8v-4.81c0-2.19-1.66-3.46-3.79-3.46l-.04-.02zm-.23 6.85c-.61 0-1.46-.31-1.46-1.06 0-1 1.06-1.34 2-1.34a3.32 3.32 0 0 1 1.7.42 2.259 2.259 0 0 1-2.2 2l-.04-.02zM123.74 22l-2.14 5.42h-.06L119.32 22h-2l3.33 7.58-1.9 4.21h2L125.82 22h-2.08zm-16.8 8h1.86V17.5h-1.86V30z"/><path fill="url(#b)" d="M10.44 7.54a2 2 0 0 0-.44 1.4v22.12a1.94 1.94 0 0 0 .47 1.4l.07.08L22.9 20.15v-.3L10.51 7.47l-.07.07z"/><path fill="url(#c)" d="m27 24.28-4.1-4.13v-.3l4.1-4.13.09.06L32 18.56c1.4.79 1.4 2.09 0 2.89l-4.89 2.78-.11.05z"/><path fill="url(#d)" d="M27.12 24.23 22.9 20 10.44 32.46a1.62 1.62 0 0 0 2.07.07l14.61-8.3z"/><path fill="url(#e)" d="m27.12 15.78-14.61-8.3a1.61 1.61 0 0 0-2.07.06L22.9 20l4.22-4.22z"/><path fill="#000" d="m27 24.13-14.49 8.25a1.66 1.66 0 0 1-2 0l-.07.07.07.08a1.66 1.66 0 0 0 2 0l14.61-8.3-.12-.1z" opacity=".2"/><path fill="#000" d="M10.44 32.32a2 2 0 0 1-.44-1.41v.15a1.94 1.94 0 0 0 .47 1.4l.07-.07-.1-.07zM32 21.3l-5 2.83.09.1L32 21.44A1.75 1.75 0 0 0 33.06 20 1.86 1.86 0 0 1 32 21.3z" opacity=".12"/><path fill="#fff" d="M12.51 7.62 32 18.7a1.86 1.86 0 0 1 1.06 1.3A1.75 1.75 0 0 0 32 18.56L12.51 7.48C11.12 6.68 10 7.34 10 8.94v.15c0-1.6 1.12-2.26 2.51-1.47z" opacity=".25"/></g><defs><linearGradient id="b" x1="21.8" x2="5.02" y1="8.71" y2="25.49" gradientUnits="userSpaceOnUse"><stop stop-color="#00A0FF"/><stop offset=".01" stop-color="#00A1FF"/><stop offset=".26" stop-color="#00BEFF"/><stop offset=".51" stop-color="#00D2FF"/><stop offset=".76" stop-color="#00DFFF"/><stop offset="1" stop-color="#00E3FF"/></linearGradient><linearGradient id="c" x1="33.83" x2="9.64" y1="20" y2="20" gradientUnits="userSpaceOnUse"><stop stop-color="#FFE000"/><stop offset=".41" stop-color="#FFBD00"/><stop offset=".78" stop-color="orange"/><stop offset="1" stop-color="#FF9C00"/></linearGradient><linearGradient id="d" x1="24.83" x2="2.07" y1="22.3" y2="45.05" gradientUnits="userSpaceOnUse"><stop stop-color="#FF3A44"/><stop offset="1" stop-color="#C31162"/></linearGradient><linearGradient id="e" x1="7.3" x2="17.46" y1=".18" y2="10.34" gradientUnits="userSpaceOnUse"><stop stop-color="#32A071"/><stop offset=".07" stop-color="#2DA771"/><stop offset=".48" stop-color="#15CF74"/><stop offset=".8" stop-color="#06E775"/><stop offset="1" stop-color="#00F076"/></linearGradient><clipPath id="a"><path fill="#fff" d="M0 0h135v40H0z"/></clipPath></defs></svg>